<?xml version="1.0" standalone="no"?><svg xmlns:xlink="http://www.w3.org/1999/xlink" xmlns="http://www.w3.org/2000/svg" viewBox="0 0 370 370" preserveAspectRatio="xMaxYMax slice"><g transform="scale(0.9552750546701333)"><rect x="0" y="0" width="387.33299999999997" height="387.33299999999997" fill="#ffffff"/><rect x="0" y="0" width="77.4666" height="77.4666" fill="#ffffff"/><rect x="0" y="0" width="38.73" height="38.73" fill="#abfcff"/><path d="M 0 38.73 A 38.73 38.73 0 0 1  38.73 0 L 38.73 38.73" fill="#8df0dc"/><rect x="38.73" y="0" width="38.73" height="38.73" fill="#8cf0dc"/><rect x="38.73" y="0" width="38.73" height="38.73" fill="#5ff9ff"/><rect x="0" y="38.73" width="38.73" height="38.73" fill="#4be7c8"/><g transform="translate(0,38.73) scale(1.9364999999999999) rotate(0)"><rect width="2" height="20" fill="#c5fdff"/><rect x="4" width="2" height="20" fill="#c5fdff"/><rect x="8" width="2" height="20" fill="#c5fdff"/><rect x="12" width="2" height="20" fill="#c5fdff"/><rect x="16" width="2" height="20" fill="#c5fdff"/></g><rect x="38.73" y="38.73" width="38.73" height="38.73" fill="#8bfbff"/><path d="M 38.73 38.73 A 38.73 38.73 0 0 0 77.46 77.46 L 77.46 38.73" fill="#b7f5e9"/><rect x="77.4666" y="0" width="77.4666" height="77.4666" fill="#ffffff"/><rect x="77.47" y="0" width="38.73" height="38.73" fill="#effeff"/><g transform="translate(77.47,0) scale(1.9364999999999999) rotate(0)"><rect width="2" height="20" fill="#9efcff"/><rect x="4" width="2" height="20" fill="#9efcff"/><rect x="8" width="2" height="20" fill="#9efcff"/><rect x="12" width="2" height="20" fill="#9efcff"/><rect x="16" width="2" height="20" fill="#9efcff"/></g><rect x="116.2" y="0" width="38.73" height="38.73" fill="#74ecd5"/><g transform="translate(116.2,0) scale(1.9364999999999999) rotate(0)"><rect width="2" height="20" fill="#86fbff"/><rect x="4" width="2" height="20" fill="#86fbff"/><rect x="8" width="2" height="20" fill="#86fbff"/><rect x="12" width="2" height="20" fill="#86fbff"/><rect x="16" width="2" height="20" fill="#86fbff"/></g><rect x="77.47" y="38.73" width="38.73" height="38.73" fill="#6eecd3"/><rect x="77.47" y="38.73" width="38.73" height="38.73" fill="#7eeed8"/><rect x="116.2" y="38.73" width="38.73" height="38.73" fill="#78edd6"/><rect x="116.2" y="38.73" width="38.73" height="38.73" fill="#8cf0dc"/><rect x="154.9332" y="0" width="77.4666" height="77.4666" fill="#ffffff"/><rect x="154.93" y="0" width="38.73" height="38.73" fill="#f0feff"/><polygon points="154.93,0 193.66,38.73 154.93,38.73" fill="#7bfaff"/><rect x="193.67" y="0" width="38.73" height="38.73" fill="#b2fcff"/><path d="M 193.67 0 A 38.73 38.73 0 0 1 232.39999999999998 38.73 L 193.67 38.73" fill="#d9feff"/><rect x="154.93" y="38.73" width="38.73" height="38.73" fill="#56f9ff"/><g transform="translate(154.93,38.73) scale(1.9364999999999999) rotate(0)"><rect width="2" height="20" fill="#79faff"/><rect x="4" width="2" height="20" fill="#79faff"/><rect x="8" width="2" height="20" fill="#79faff"/><rect x="12" width="2" height="20" fill="#79faff"/><rect x="16" width="2" height="20" fill="#79faff"/></g><rect x="193.67" y="38.73" width="38.73" height="38.73" fill="#7efbff"/><g transform="translate(193.67,38.73) scale(1.9364999999999999) rotate(0)"><rect width="2" height="20" fill="#edfeff"/><rect x="4" width="2" height="20" fill="#edfeff"/><rect x="8" width="2" height="20" fill="#edfeff"/><rect x="12" width="2" height="20" fill="#edfeff"/><rect x="16" width="2" height="20" fill="#edfeff"/></g><rect x="232.3998" y="0" width="77.4666" height="77.4666" fill="#ffffff"/><rect x="232.4" y="0" width="38.73" height="38.73" fill="#8bfbff"/><rect x="232.4" y="0" width="38.73" height="38.73" fill="#9ff2e2"/><rect x="271.13" y="0" width="38.73" height="38.73" fill="#79edd6"/><g transform="translate(271.13,0) scale(1.9364999999999999) rotate(0)"><rect width="2" height="20" fill="#b5f5e8"/><rect x="4" width="2" height="20" fill="#b5f5e8"/><rect x="8" width="2" height="20" fill="#b5f5e8"/><rect x="12" width="2" height="20" fill="#b5f5e8"/><rect x="16" width="2" height="20" fill="#b5f5e8"/></g><rect x="232.4" y="38.73" width="38.73" height="38.73" fill="#77faff"/><g transform="translate(232.4,38.73) scale(1.9364999999999999) rotate(0)"><rect width="2" height="20" fill="#8bfbff"/><rect x="4" width="2" height="20" fill="#8bfbff"/><rect x="8" width="2" height="20" fill="#8bfbff"/><rect x="12" width="2" height="20" fill="#8bfbff"/><rect x="16" width="2" height="20" fill="#8bfbff"/></g><rect x="271.13" y="38.73" width="38.73" height="38.73" fill="#6eecd3"/><g transform="translate(271.13,38.73) scale(1.9364999999999999) rotate(0)"><rect width="2" height="20" fill="#71ecd3"/><rect x="4" width="2" height="20" fill="#71ecd3"/><rect x="8" width="2" height="20" fill="#71ecd3"/><rect x="12" width="2" height="20" fill="#71ecd3"/><rect x="16" width="2" height="20" fill="#71ecd3"/></g><rect x="309.8664" y="0" width="77.4666" height="77.4666" fill="#ffffff"/><rect x="309.87" y="0" width="38.73" height="38.73" fill="#a7fcff"/><rect x="309.87" y="0" width="38.73" height="38.73" fill="#eafeff"/><rect x="348.6" y="0" width="38.73" height="38.73" fill="#81eed9"/><rect x="348.6" y="0" width="38.73" height="38.73" fill="#b4fcff"/><rect x="309.87" y="38.73" width="38.73" height="38.73" fill="#f4ffff"/><polygon points="309.87,38.73 348.6,38.73 309.87,77.46" fill="#c1fdff"/><rect x="348.6" y="38.73" width="38.73" height="38.73" fill="#d8feff"/><path d="M 348.6 38.73 A 38.73 38.73 0 0 0 387.33000000000004 77.46 L 387.33000000000004 38.73" fill="#63faff"/><rect x="0" y="77.4666" width="77.4666" height="77.4666" fill="#ffffff"/><rect x="0" y="77.47" width="38.73" height="38.73" fill="#c4f7ed"/><polygon points="0,77.47 38.73,77.47 38.73,116.19999999999999" fill="#f0feff"/><rect x="38.73" y="77.47" width="38.73" height="38.73" fill="#dffeff"/><path d="M 38.73 116.19999999999999 A 38.73 38.73 0 0 0 77.46 77.47 L 38.73 77.47" fill="#62eacf"/><rect x="0" y="116.2" width="38.73" height="38.73" fill="#91fbff"/><g transform="translate(0,116.2) scale(1.9364999999999999) rotate(0)"><rect width="2" height="20" fill="#e6feff"/><rect x="4" width="2" height="20" fill="#e6feff"/><rect x="8" width="2" height="20" fill="#e6feff"/><rect x="12" width="2" height="20" fill="#e6feff"/><rect x="16" width="2" height="20" fill="#e6feff"/></g><rect x="38.73" y="116.2" width="38.73" height="38.73" fill="#55e8cb"/><path d="M 38.73 154.93 A 38.73 38.73 0 0 0 77.46 116.2 L 38.73 116.2" fill="#b2f5e7"/><rect x="77.4666" y="77.4666" width="77.4666" height="77.4666" fill="#ffffff"/><rect x="77.47" y="77.47" width="38.73" height="38.73" fill="#67faff"/><g transform="translate(77.47,77.47) scale(1.9364999999999999) rotate(0)"><rect width="2" height="20" fill="#f1fdfb"/><rect x="4" width="2" height="20" fill="#f1fdfb"/><rect x="8" width="2" height="20" fill="#f1fdfb"/><rect x="12" width="2" height="20" fill="#f1fdfb"/><rect x="16" width="2" height="20" fill="#f1fdfb"/></g><rect x="116.2" y="77.47" width="38.73" height="38.73" fill="#75edd5"/><g transform="translate(116.2,77.47) scale(1.9364999999999999) rotate(0)"><rect width="2" height="20" fill="#befdff"/><rect x="4" width="2" height="20" fill="#befdff"/><rect x="8" width="2" height="20" fill="#befdff"/><rect x="12" width="2" height="20" fill="#befdff"/><rect x="16" width="2" height="20" fill="#befdff"/></g><rect x="77.47" y="116.2" width="38.73" height="38.73" fill="#f3ffff"/><rect x="77.47" y="116.2" width="38.73" height="38.73" fill="#d4feff"/><rect x="116.2" y="116.2" width="38.73" height="38.73" fill="#b9f6ea"/><polygon points="116.2,116.2 154.93,116.2 116.2,154.93" fill="#6cebd2"/><rect x="154.9332" y="77.4666" width="77.4666" height="77.4666" fill="#ffffff"/><rect x="154.93" y="77.47" width="38.73" height="38.73" fill="#a9fcff"/><g transform="translate(154.93,77.47) scale(1.9364999999999999) rotate(0)"><rect width="2" height="20" fill="#86efda"/><rect x="4" width="2" height="20" fill="#86efda"/><rect x="8" width="2" height="20" fill="#86efda"/><rect x="12" width="2" height="20" fill="#86efda"/><rect x="16" width="2" height="20" fill="#86efda"/></g><rect x="193.67" y="77.47" width="38.73" height="38.73" fill="#9ffcff"/><path d="M 193.67 116.19999999999999 A 38.73 38.73 0 0 1  232.39999999999998 77.47 L 193.67 116.19999999999999 A 38.73 38.73 0 0 0 232.39999999999998 77.47" fill="#81eed8"/><rect x="154.93" y="116.2" width="38.73" height="38.73" fill="#66faff"/><path d="M 154.93 154.93 A 38.73 38.73 0 0 1  193.66 116.2 L 193.66 154.93" fill="#d1fdff"/><rect x="193.67" y="116.2" width="38.73" height="38.73" fill="#f5ffff"/><rect x="193.67" y="116.2" width="38.73" height="38.73" fill="#e4feff"/><rect x="232.3998" y="77.4666" width="77.4666" height="77.4666" fill="#ffffff"/><rect x="232.4" y="77.47" width="38.73" height="38.73" fill="#aef4e6"/><polygon points="232.4,77.47 271.13,77.47 232.4,116.19999999999999" fill="#66ebd0"/><rect x="271.13" y="77.47" width="38.73" height="38.73" fill="#92fbff"/><rect x="271.13" y="77.47" width="38.73" height="38.73" fill="#74faff"/><rect x="232.4" y="116.2" width="38.73" height="38.73" fill="#a8fcff"/><g transform="translate(232.4,116.2) scale(1.9364999999999999) rotate(0)"><rect width="2" height="20" fill="#7cedd7"/><rect x="4" width="2" height="20" fill="#7cedd7"/><rect x="8" width="2" height="20" fill="#7cedd7"/><rect x="12" width="2" height="20" fill="#7cedd7"/><rect x="16" width="2" height="20" fill="#7cedd7"/></g><rect x="271.13" y="116.2" width="38.73" height="38.73" fill="#90f0dd"/><g transform="translate(271.13,116.2) scale(1.9364999999999999) rotate(0)"><rect width="2" height="20" fill="#aff4e6"/><rect x="4" width="2" height="20" fill="#aff4e6"/><rect x="8" width="2" height="20" fill="#aff4e6"/><rect x="12" width="2" height="20" fill="#aff4e6"/><rect x="16" width="2" height="20" fill="#aff4e6"/></g><rect x="309.8664" y="77.4666" width="77.4666" height="77.4666" fill="#ffffff"/><rect x="309.87" y="77.47" width="38.73" height="38.73" fill="#58e9cc"/><path d="M 309.87 77.47 A 38.73 38.73 0 0 0 348.6 116.19999999999999 L 348.6 77.47" fill="#7efbff"/><rect x="348.6" y="77.47" width="38.73" height="38.73" fill="#4ee7c9"/><path d="M 348.6 77.47 A 38.73 38.73 0 0 0 387.33000000000004 116.19999999999999 L 387.33000000000004 77.47" fill="#68faff"/><rect x="309.87" y="116.2" width="38.73" height="38.73" fill="#b4fcff"/><polygon points="309.87,116.2 348.6,116.2 348.6,154.93" fill="#5ee9ce"/><rect x="348.6" y="116.2" width="38.73" height="38.73" fill="#70faff"/><g transform="translate(348.6,116.2) scale(1.9364999999999999) rotate(0)"><rect width="2" height="20" fill="#97f1df"/><rect x="4" width="2" height="20" fill="#97f1df"/><rect x="8" width="2" height="20" fill="#97f1df"/><rect x="12" width="2" height="20" fill="#97f1df"/><rect x="16" width="2" height="20" fill="#97f1df"/></g><rect x="0" y="154.9332" width="77.4666" height="77.4666" fill="#ffffff"/><rect x="0" y="154.93" width="38.73" height="38.73" fill="#dbfeff"/><rect x="0" y="154.93" width="38.73" height="38.73" fill="#effeff"/><rect x="38.73" y="154.93" width="38.73" height="38.73" fill="#e1feff"/><g transform="translate(38.73,154.93) scale(1.9364999999999999) rotate(0)"><rect width="2" height="20" fill="#60eacf"/><rect x="4" width="2" height="20" fill="#60eacf"/><rect x="8" width="2" height="20" fill="#60eacf"/><rect x="12" width="2" height="20" fill="#60eacf"/><rect x="16" width="2" height="20" fill="#60eacf"/></g><rect x="0" y="193.67" width="38.73" height="38.73" fill="#87efda"/><path d="M 0 232.39999999999998 A 38.73 38.73 0 0 1  38.73 193.67 L 0 232.39999999999998 A 38.73 38.73 0 0 0 38.73 193.67" fill="#55f9ff"/><rect x="38.73" y="193.67" width="38.73" height="38.73" fill="#90f0dd"/><polygon points="38.73,193.67 77.46,193.67 77.46,232.39999999999998" fill="#93fbff"/><rect x="77.47" y="154.93" width="77.47" height="77.47" fill="#a3f3e3"/><rect x="77.47" y="154.93" width="77.47" height="77.47" fill="#52e8ca"/><rect x="154.93" y="154.93" width="77.47" height="77.47" fill="#9bfcff"/><g transform="translate(154.93,154.93) scale(3.8735) rotate(0)"><rect width="2" height="20" fill="#64ead0"/><rect x="4" width="2" height="20" fill="#64ead0"/><rect x="8" width="2" height="20" fill="#64ead0"/><rect x="12" width="2" height="20" fill="#64ead0"/><rect x="16" width="2" height="20" fill="#64ead0"/></g><rect x="232.3998" y="154.9332" width="77.4666" height="77.4666" fill="#ffffff"/><rect x="232.4" y="154.93" width="38.73" height="38.73" fill="#f0feff"/><path d="M 232.4 154.93 A 38.73 38.73 0 0 0 271.13 193.66 L 271.13 154.93" fill="#5eeace"/><rect x="271.13" y="154.93" width="38.73" height="38.73" fill="#f7ffff"/><path d="M 271.13 154.93 A 38.73 38.73 0 0 0 309.86 193.66 L 309.86 154.93" fill="#ddfaf5"/><rect x="232.4" y="193.67" width="38.73" height="38.73" fill="#9efcff"/><rect x="232.4" y="193.67" width="38.73" height="38.73" fill="#56e8cb"/><rect x="271.13" y="193.67" width="38.73" height="38.73" fill="#7feed8"/><rect x="271.13" y="193.67" width="38.73" height="38.73" fill="#ecfeff"/><rect x="309.8664" y="154.9332" width="77.4666" height="77.4666" fill="#ffffff"/><rect x="309.87" y="154.93" width="38.73" height="38.73" fill="#a7fcff"/><rect x="309.87" y="154.93" width="38.73" height="38.73" fill="#affcff"/><rect x="348.6" y="154.93" width="38.73" height="38.73" fill="#b6fcff"/><rect x="348.6" y="154.93" width="38.73" height="38.73" fill="#91fbff"/><rect x="309.87" y="193.67" width="38.73" height="38.73" fill="#dafaf4"/><path d="M 309.87 193.67 A 38.73 38.73 0 0 1 348.6 232.39999999999998 L 309.87 232.39999999999998" fill="#5cf9ff"/><rect x="348.6" y="193.67" width="38.73" height="38.73" fill="#b7f5e9"/><rect x="348.6" y="193.67" width="38.73" height="38.73" fill="#a9fcff"/><rect x="0" y="232.3998" width="77.4666" height="77.4666" fill="#ffffff"/><rect x="0" y="232.4" width="38.73" height="38.73" fill="#a7fcff"/><path d="M 0 271.13 A 38.73 38.73 0 0 0 38.73 232.4 L 0 232.4" fill="#77edd5"/><rect x="38.73" y="232.4" width="38.73" height="38.73" fill="#99fbff"/><path d="M 38.73 271.13 A 38.73 38.73 0 0 1  77.46 232.4 L 77.46 271.13" fill="#f9fefd"/><rect x="0" y="271.13" width="38.73" height="38.73" fill="#84fbff"/><path d="M 0 271.13 A 38.73 38.73 0 0 1 38.73 309.86 L 0 309.86" fill="#81eed8"/><rect x="38.73" y="271.13" width="38.73" height="38.73" fill="#4ce7c8"/><polygon points="77.46,271.13 77.46,309.86 38.73,309.86" fill="#f8ffff"/><rect x="77.4666" y="232.3998" width="77.4666" height="77.4666" fill="#ffffff"/><rect x="77.47" y="232.4" width="38.73" height="38.73" fill="#d2fdff"/><rect x="77.47" y="232.4" width="38.73" height="38.73" fill="#93fbff"/><rect x="116.2" y="232.4" width="38.73" height="38.73" fill="#c0f7ec"/><path d="M 116.2 271.13 A 38.73 38.73 0 0 0 154.93 232.4 L 116.2 232.4" fill="#e6fcf7"/><rect x="77.47" y="271.13" width="38.73" height="38.73" fill="#cbfdff"/><rect x="77.47" y="271.13" width="38.73" height="38.73" fill="#87fbff"/><rect x="116.2" y="271.13" width="38.73" height="38.73" fill="#89fbff"/><g transform="translate(116.2,271.13) scale(1.9364999999999999) rotate(0)"><rect width="2" height="20" fill="#56f9ff"/><rect x="4" width="2" height="20" fill="#56f9ff"/><rect x="8" width="2" height="20" fill="#56f9ff"/><rect x="12" width="2" height="20" fill="#56f9ff"/><rect x="16" width="2" height="20" fill="#56f9ff"/></g><rect x="154.93" y="232.4" width="77.47" height="77.47" fill="#84efd9"/><path d="M 154.93 232.4 A 77.47 77.47 0 0 0 232.4 309.87 L 232.4 232.4" fill="#6efaff"/><rect x="232.3998" y="232.3998" width="77.4666" height="77.4666" fill="#ffffff"/><rect x="232.4" y="232.4" width="38.73" height="38.73" fill="#fdffff"/><path d="M 232.4 271.13 A 38.73 38.73 0 0 0 271.13 232.4 L 232.4 232.4" fill="#f2fdfb"/><rect x="271.13" y="232.4" width="38.73" height="38.73" fill="#82eed9"/><g transform="translate(271.13,232.4) scale(1.9364999999999999) rotate(0)"><rect width="2" height="20" fill="#5de9ce"/><rect x="4" width="2" height="20" fill="#5de9ce"/><rect x="8" width="2" height="20" fill="#5de9ce"/><rect x="12" width="2" height="20" fill="#5de9ce"/><rect x="16" width="2" height="20" fill="#5de9ce"/></g><rect x="232.4" y="271.13" width="38.73" height="38.73" fill="#6cfaff"/><path d="M 232.4 271.13 A 38.73 38.73 0 0 1 271.13 309.86 L 232.4 309.86" fill="#c7fdff"/><rect x="271.13" y="271.13" width="38.73" height="38.73" fill="#4fe8c9"/><rect x="271.13" y="271.13" width="38.73" height="38.73" fill="#bdfdff"/><rect x="309.87" y="232.4" width="77.47" height="77.47" fill="#8bf0dc"/><rect x="309.87" y="232.4" width="77.47" height="77.47" fill="#c7f8ee"/><rect x="0" y="309.87" width="77.47" height="77.47" fill="#fdfffe"/><path d="M 0 387.34000000000003 A 77.47 77.47 0 0 1  77.47 309.87 L 77.47 387.34000000000003" fill="#d5f9f2"/><rect x="77.4666" y="309.8664" width="77.4666" height="77.4666" fill="#ffffff"/><rect x="77.47" y="309.87" width="38.73" height="38.73" fill="#67faff"/><polygon points="116.19999999999999,309.87 116.19999999999999,348.6 77.47,348.6" fill="#9dfcff"/><rect x="116.2" y="309.87" width="38.73" height="38.73" fill="#56f9ff"/><g transform="translate(116.2,309.87) scale(1.9364999999999999) rotate(0)"><rect width="2" height="20" fill="#d6faf2"/><rect x="4" width="2" height="20" fill="#d6faf2"/><rect x="8" width="2" height="20" fill="#d6faf2"/><rect x="12" width="2" height="20" fill="#d6faf2"/><rect x="16" width="2" height="20" fill="#d6faf2"/></g><rect x="77.47" y="348.6" width="38.73" height="38.73" fill="#8aefdb"/><polygon points="77.47,348.6 116.19999999999999,348.6 77.47,387.33000000000004" fill="#81fbff"/><rect x="116.2" y="348.6" width="38.73" height="38.73" fill="#9ff2e2"/><polygon points="116.2,348.6 154.93,387.33000000000004 116.2,387.33000000000004" fill="#5ef9ff"/><rect x="154.9332" y="309.8664" width="77.4666" height="77.4666" fill="#ffffff"/><rect x="154.93" y="309.87" width="38.73" height="38.73" fill="#d0fdff"/><g transform="translate(154.93,309.87) scale(1.9364999999999999) rotate(0)"><rect width="2" height="20" fill="#e1fbf6"/><rect x="4" width="2" height="20" fill="#e1fbf6"/><rect x="8" width="2" height="20" fill="#e1fbf6"/><rect x="12" width="2" height="20" fill="#e1fbf6"/><rect x="16" width="2" height="20" fill="#e1fbf6"/></g><rect x="193.67" y="309.87" width="38.73" height="38.73" fill="#acf4e6"/><path d="M 193.67 348.6 A 38.73 38.73 0 0 0 232.39999999999998 309.87 L 193.67 309.87" fill="#76faff"/><rect x="154.93" y="348.6" width="38.73" height="38.73" fill="#63eacf"/><rect x="154.93" y="348.6" width="38.73" height="38.73" fill="#63eacf"/><rect x="193.67" y="348.6" width="38.73" height="38.73" fill="#4ee7c9"/><polygon points="232.39999999999998,348.6 232.39999999999998,387.33000000000004 193.67,387.33000000000004" fill="#acfcff"/><rect x="232.3998" y="309.8664" width="77.4666" height="77.4666" fill="#ffffff"/><rect x="232.4" y="309.87" width="38.73" height="38.73" fill="#78edd6"/><path d="M 232.4 348.6 A 38.73 38.73 0 0 0 271.13 309.87 L 232.4 309.87" fill="#cef9f0"/><rect x="271.13" y="309.87" width="38.73" height="38.73" fill="#d4f9f2"/><rect x="271.13" y="309.87" width="38.73" height="38.73" fill="#b5f5e8"/><rect x="232.4" y="348.6" width="38.73" height="38.73" fill="#5af9ff"/><path d="M 232.4 387.33000000000004 A 38.73 38.73 0 0 0 271.13 348.6 L 232.4 348.6" fill="#e7feff"/><rect x="271.13" y="348.6" width="38.73" height="38.73" fill="#c1fdff"/><rect x="271.13" y="348.6" width="38.73" height="38.73" fill="#69faff"/><rect x="309.87" y="309.87" width="77.47" height="77.47" fill="#acfcff"/><path d="M 309.87 309.87 A 77.47 77.47 0 0 0 387.34000000000003 387.34000000000003 L 387.34000000000003 309.87" fill="#a0f2e2"/></g></svg>